<?xml version="1.0" encoding="UTF-8" standalone="no"?>
<svg
   viewBox="829.45996 276.40134 25.608311 26.741163"
   width="25.608311"
   height="26.741163"
   version="1.1"
   id="svg6"
   sodipodi:docname="logo.svg"
   inkscape:version="1.4 (e7c3feb100, 2024-10-09)"
   xmlns:inkscape="http://www.inkscape.org/namespaces/inkscape"
   xmlns:sodipodi="http://sodipodi.sourceforge.net/DTD/sodipodi-0.dtd"
   xmlns="http://www.w3.org/2000/svg"
   xmlns:svg="http://www.w3.org/2000/svg">
  <defs
     id="defs6" />
  <sodipodi:namedview
     id="namedview6"
     pagecolor="#505050"
     bordercolor="#ffffff"
     borderopacity="1"
     inkscape:showpageshadow="0"
     inkscape:pageopacity="0"
     inkscape:pagecheckerboard="1"
     inkscape:deskcolor="#505050"
     inkscape:zoom="23.78009"
     inkscape:cx="12.867907"
     inkscape:cy="13.351505"
     inkscape:window-width="2560"
     inkscape:window-height="1368"
     inkscape:window-x="0"
     inkscape:window-y="0"
     inkscape:window-maximized="1"
     inkscape:current-layer="g6" />
  <g
     transform="matrix(0.52350426,0,0,0.52350426,105.24877,-123.77475)"
     id="g6">
    <path
       fill="#cccccc"
       d="m 1408.2,743.5 c -45.1001,-0.1 -45.1001,-0.1 0,0 z"
       id="path1"
       sodipodi:nodetypes="cc" />
    <path
       id="path2"
       d="m 1407.9001,765.19947 c -0.2,0.3 -7.3983,7.30131 -7.3983,7.30131 -3.5,4.3 0.6977,13.59901 0.6977,13.59901 1.4,2.6 2.6996,8.20179 2.9996,9.40179 -0.3,0 -0.4984,0.097 -0.7984,0.097 -0.2,-1.1 -0.4014,-2.19735 -0.7014,-3.19735 -1.3,-4.4 -4.5008,-11.503 -11.3008,-11.603 0,0 -7.7991,0.30032 -7.4991,9.20032 0,0 0.2021,6.40284 7.4021,7.00284 0,0 -1.1025,-4.3023 2.1975,-5.4023 0,0 4.1022,-1.79984 5.9022,4.60016 v 0.10074 c -1.8,0.6 -2.9026,1.39821 -2.9026,2.29821 0,1 1.2011,1.90341 3.2011,2.50341 -0.2,1.4 -0.899,2.79882 -2.399,3.39882 0,0 -1.8995,0.6978 -3.4995,-0.3022 0,0 0.3973,3.50096 3.1973,4.20096 1.3,0.3 2.701,-0.0999 3.701,-0.99987 0.9,-0.9 2.1005,-2.5993 2.6005,-5.4993 0.2,0 0.4006,0.10073 0.6006,0.10073 -0.3,2.4 -2.6004,6.59991 -2.6004,6.59991 0.9,3.3 5.5984,5.8977 6.3984,6.2977 v 0.10073 h 0.1008 0.1007 v -0.10073 c 0.8,-0.4 5.5992,-2.99697 6.4992,-6.19697 0,0 -2.1997,-4.30064 -2.4997,-6.70064 0.2,0 0.4007,-0.10073 0.6007,-0.10073 0.5,2.9 1.6004,4.5993 2.6004,5.4993 1,0.9 2.401,1.29987 3.701,0.99987 2.8,-0.6 3.1974,-4.10023 3.1974,-4.10023 -1.7,1 -3.4996,0.20147 -3.4996,0.20147 -1.5,-0.6 -2.1989,-1.99882 -2.3989,-3.39882 1.9,-0.6 3.1003,-1.50268 3.1003,-2.40268 0,-0.8 -1.0026,-1.69821 -2.9026,-2.29821 v -0.20147 c 1.9,-6.3 5.9022,-4.49942 5.9022,-4.49942 3.3,1.1 2.1005,5.39856 2.1005,5.39856 7.2,-0.5 7.499,-6.99911 7.499,-6.99911 0.3,-8.9 -7.3983,-9.30105 -7.3983,-9.30105 -6.8,0 -10.1015,7.10227 -11.4015,11.50227 -0.3,1.1 -0.5014,2.10108 -0.7014,3.20108 -0.2,0 -0.4984,-0.10073 -0.7984,-0.10073 0.3,-1.1 1.7003,-6.80106 3.1003,-9.30106 0,0 4.2985,-9.19828 0.7985,-13.49828 z m 0.2015,7.20058 v 0.49993 0.29847 l 1.2983,22.00093 h -1.4998 -1.3991 l 1.4998,-21.90019 z m -20.6019,12.59914 1.7013,1.20134 1.7983,-0.80214 -0.5,2.00348 1.3021,1.59681 -1.9997,0.10073 -1.1006,1.80201 -0.7014,-1.99975 -1.9998,-0.49993 1.6006,-1.30207 z m 41.0993,0.20146 -0.1978,2.10048 1.6006,1.29834 -2.0035,0.49994 -0.6977,1.99975 -1.1006,-1.79828 -1.9997,-0.10074 1.2983,-1.60054 -0.4999,-2.10048 1.9027,0.80214 z m -21.7995,16.99784 h 1.2013 1.1977 l -1.1977,7.59977 h -0.1007 z"
       style="fill:#ad9d7b;fill-opacity:1;stroke:#d2cab6;stroke-opacity:0" />
  </g>
</svg>
