<svg xmlns="http://www.w3.org/2000/svg" viewBox="0 1.7999999523162842 213.1300048828125 33" data-asc="0.645" width="213.1300048828125" height="33"><defs/><g><g fill="#000000"><g transform="translate(0, 0)"><path d="M14.30 33.70Q10.88 33.70 8.21 32.64Q5.55 31.57 3.73 29.61Q1.90 27.65 0.95 24.93Q0 22.20 0 18.88Q0 15.38 0.98 12.41Q1.95 9.45 3.88 7.25Q5.80 5.05 8.65 3.84Q11.50 2.63 15.25 2.63Q17.40 2.63 19.11 3.07Q20.83 3.52 22.01 4.19Q23.20 4.85 23.83 5.51Q24.45 6.17 24.45 6.63Q24.45 6.95 24.20 7.04Q23.95 7.13 23.75 7.13Q23.30 7.13 22.85 6.67Q22.40 6.22 21.53 5.65Q20.65 5.07 18.99 4.63Q17.32 4.17 14.50 4.17Q12.25 4.17 10.01 5.07Q7.78 5.97 5.94 7.77Q4.10 9.57 2.99 12.27Q1.88 14.97 1.88 18.55Q1.88 21.23 2.64 23.69Q3.40 26.15 4.94 28.07Q6.47 30 8.76 31.13Q11.05 32.25 14.13 32.25Q16.65 32.25 18.29 31.59Q19.93 30.93 20.98 30.06Q22.03 29.20 22.70 28.54Q23.38 27.88 23.93 27.88Q24.28 27.88 24.41 28.04Q24.55 28.20 24.55 28.63Q24.55 29.10 23.89 29.95Q23.23 30.80 21.91 31.65Q20.60 32.50 18.69 33.10Q16.78 33.70 14.30 33.70ZM58.05 33.25Q57.63 33.25 57.35 32.74Q57.08 32.23 56.88 31.40Q56.65 30.50 56.33 29.19Q56 27.88 55.68 26.50Q55.35 25.13 55.08 23.98Q54.80 22.82 54.65 22.23Q54.45 21.38 53.99 21.01Q53.53 20.65 52.28 20.55Q51.65 20.50 50.21 20.40Q48.78 20.30 47.06 20.21Q45.35 20.13 43.88 20.13Q41.65 20.13 39.38 20.21Q37.10 20.30 35.50 20.40Q34.18 20.48 33.63 20.82Q33.08 21.17 32.75 22.17Q32.45 23.10 32.08 24.49Q31.70 25.88 31.31 27.40Q30.93 28.93 30.60 30.32Q30.28 31.65 29.96 32.16Q29.65 32.67 29.15 32.67Q28.98 32.67 28.84 32.55Q28.70 32.42 28.64 32.16Q28.58 31.90 28.58 31.50Q28.58 30.63 28.90 29.01Q29.23 27.40 29.78 25.36Q30.33 23.32 31.00 21.13Q31.68 18.92 32.38 16.85Q33.08 14.77 33.71 13.09Q34.35 11.40 34.80 10.42Q35.68 8.57 36.69 7Q37.70 5.42 38.89 4.26Q40.08 3.10 41.45 2.45Q42.83 1.80 44.43 1.80Q47.28 1.80 49.33 3.97Q51.38 6.15 52.85 9.50Q53.30 10.50 53.89 12.29Q54.48 14.07 55.13 16.31Q55.78 18.55 56.38 20.92Q56.98 23.30 57.48 25.54Q57.98 27.77 58.26 29.57Q58.55 31.38 58.55 32.42Q58.55 32.85 58.44 33.05Q58.33 33.25 58.05 33.25M52.43 18.77Q53 18.77 53.21 18.50Q53.43 18.23 53.43 17.55Q53.43 16.57 53.06 15.06Q52.70 13.55 52.08 11.82Q51.45 10.10 50.63 8.55Q49.45 6.30 47.89 4.77Q46.33 3.25 44.48 3.25Q42.68 3.25 40.99 4.63Q39.30 6 37.90 8.35Q37.30 9.32 36.66 10.59Q36.03 11.85 35.48 13.15Q34.93 14.45 34.58 15.59Q34.23 16.73 34.23 17.50Q34.23 18.13 34.70 18.35Q35.18 18.57 36.75 18.57Q40.95 18.57 43.96 18.63Q46.98 18.67 49.04 18.73Q51.10 18.77 52.43 18.77ZM63.63 33.45Q62.85 33.45 62.70 32.65Q62.55 31.85 62.55 30.55Q62.55 29.50 62.55 28.27Q62.55 27.05 62.56 25.70Q62.58 24.35 62.59 22.92Q62.60 21.50 62.63 20.07Q62.68 17.95 62.75 15.93Q62.83 13.90 62.93 12.14Q63.03 10.38 63.14 9.07Q63.25 7.77 63.35 7.13Q63.60 5.50 64.25 4.44Q64.90 3.38 65.90 2.85Q66.90 2.32 68.15 2.32Q69.93 2.32 71.03 3.38Q72.13 4.42 72.60 6.42Q72.88 7.55 73.19 9.22Q73.50 10.90 73.80 12.75Q74.10 14.60 74.36 16.32Q74.63 18.05 74.80 19.30Q75.08 21.15 75.43 22.51Q75.78 23.88 76.60 23.88Q77.28 23.88 77.60 22.86Q77.93 21.85 78.03 20.73Q78.20 19.15 78.41 17.21Q78.63 15.27 78.90 13.27Q79.18 11.27 79.48 9.45Q79.78 7.63 80.10 6.25Q80.53 4.47 81.66 3.45Q82.80 2.42 84.40 2.42Q85.40 2.42 86.26 2.88Q87.13 3.32 87.80 4.22Q88.48 5.13 88.90 6.50Q89.23 7.52 89.45 9.60Q89.68 11.67 89.81 14.45Q89.95 17.23 90.03 20.35Q90.05 21.65 90.08 22.98Q90.10 24.30 90.11 25.64Q90.13 26.98 90.13 28.27Q90.13 29.57 90.13 30.85Q90.13 31.77 89.95 32.20Q89.78 32.63 89.23 32.63Q88.85 32.63 88.64 32.29Q88.43 31.95 88.43 31.13Q88.43 29.95 88.43 28.65Q88.43 27.35 88.41 25.99Q88.40 24.63 88.39 23.23Q88.38 21.82 88.35 20.45Q88.30 17.60 88.20 15.01Q88.10 12.42 87.94 10.44Q87.78 8.45 87.45 7.45Q86.90 5.70 86.26 4.85Q85.63 4 84.35 4Q83.43 4 82.65 4.72Q81.88 5.45 81.53 7.05Q81.35 7.88 81.13 9.15Q80.90 10.42 80.68 11.96Q80.45 13.50 80.24 15.13Q80.03 16.75 79.84 18.30Q79.65 19.85 79.53 21.13Q79.30 23.48 78.59 24.64Q77.88 25.80 76.60 25.80Q74.95 25.80 74.31 24.14Q73.68 22.48 73.23 19.82Q73.05 18.80 72.80 17.36Q72.55 15.93 72.28 14.32Q72 12.72 71.73 11.21Q71.45 9.70 71.23 8.52Q71 7.35 70.85 6.75Q70.50 5.27 69.75 4.55Q69 3.82 68.10 3.82Q66.65 3.82 66.05 4.71Q65.45 5.60 65.10 7.75Q64.98 8.52 64.86 9.84Q64.75 11.15 64.68 12.80Q64.60 14.45 64.55 16.29Q64.50 18.13 64.50 20Q64.50 21.88 64.51 23.65Q64.53 25.43 64.53 26.98Q64.53 28.52 64.54 29.68Q64.55 30.82 64.55 31.45Q64.55 32.33 64.41 32.89Q64.28 33.45 63.63 33.45ZM97.38 32.75Q97.05 32.75 96.86 32.50Q96.67 32.25 96.55 31.50Q96.42 30.75 96.30 29.30Q96.22 28.38 96.11 26.85Q96 25.32 95.88 23.48Q95.75 21.63 95.63 19.66Q95.50 17.70 95.40 15.85Q95.30 14 95.24 12.49Q95.17 10.97 95.17 10.05Q95.17 6.95 95.89 5.26Q96.60 3.57 98.38 2.92Q100.15 2.27 103.30 2.27Q106.35 2.27 109.14 2.85Q111.92 3.42 114.09 4.60Q116.25 5.77 117.50 7.56Q118.75 9.35 118.75 11.75Q118.75 13.63 117.79 15Q116.83 16.38 115.10 17.31Q113.38 18.25 111.05 18.82Q108.72 19.40 106 19.70Q104.22 19.88 102.33 19.96Q100.42 20.05 98.45 20.05Q97.92 20.05 97.76 20.49Q97.60 20.92 97.60 21.75Q97.60 22.42 97.64 23.42Q97.67 24.43 97.74 25.57Q97.80 26.73 97.86 27.85Q97.92 28.98 97.96 29.93Q98 30.88 98 31.48Q98 32.15 97.83 32.45Q97.65 32.75 97.38 32.75M98.92 18.63Q101.50 18.63 104.09 18.45Q106.67 18.27 109.01 17.82Q111.35 17.38 113.16 16.56Q114.97 15.75 116.03 14.51Q117.08 13.27 117.08 11.52Q117.08 9.55 116.04 8.17Q115 6.80 113.38 5.89Q111.75 4.97 109.90 4.46Q108.05 3.95 106.39 3.75Q104.72 3.55 103.67 3.55Q101.58 3.55 100.22 3.90Q98.88 4.25 98.13 4.95Q97.38 5.65 97.09 6.67Q96.80 7.70 96.80 9.07Q96.80 11.22 96.85 12.82Q96.90 14.43 97.02 15.54Q97.15 16.65 97.39 17.32Q97.63 18 98 18.31Q98.38 18.63 98.92 18.63ZM137.75 34.80Q134.15 34.80 131.22 33.58Q128.30 32.35 126.21 30.09Q124.13 27.82 123 24.70Q121.88 21.57 121.88 17.80Q121.88 14.35 123 11.77Q124.13 9.20 126 7.41Q127.88 5.63 130.16 4.52Q132.45 3.42 134.82 2.92Q137.20 2.42 139.30 2.42Q143.10 2.42 146.21 3.61Q149.32 4.80 151.57 6.97Q153.82 9.15 155.04 12.13Q156.25 15.10 156.25 18.70Q156.25 22.67 154.96 25.69Q153.68 28.70 151.24 30.73Q148.80 32.75 145.40 33.77Q142 34.80 137.75 34.80M137.93 33.08Q143.97 33.08 147.59 31.16Q151.20 29.25 152.81 26.01Q154.43 22.77 154.43 18.82Q154.43 15.18 153.26 12.39Q152.10 9.60 150.03 7.72Q147.95 5.85 145.22 4.90Q142.50 3.95 139.38 3.95Q136.28 3.95 133.49 4.88Q130.70 5.80 128.54 7.54Q126.38 9.27 125.13 11.75Q123.88 14.22 123.88 17.30Q123.88 21.07 124.92 24.01Q125.97 26.95 127.86 28.96Q129.75 30.98 132.32 32.02Q134.90 33.08 137.93 33.08ZM171.55 33.08Q166.95 33.08 164.49 30.51Q162.03 27.95 160.93 23.77Q160.65 22.73 160.45 21.57Q160.25 20.42 160.11 19.21Q159.97 18 159.90 16.73Q159.82 15.45 159.79 14.13Q159.75 12.80 159.75 11.42Q159.75 7.85 159.86 5.91Q159.97 3.97 160.22 3.24Q160.47 2.50 160.82 2.50Q161.13 2.50 161.26 3.30Q161.40 4.10 161.44 6.26Q161.47 8.42 161.47 12.52Q161.47 13.75 161.51 14.95Q161.55 16.15 161.63 17.29Q161.70 18.42 161.82 19.51Q161.95 20.60 162.13 21.61Q162.30 22.63 162.55 23.55Q163.50 27.18 165.64 29.38Q167.78 31.57 171.63 31.57Q173.97 31.57 175.72 30.56Q177.47 29.55 178.70 27.75Q179.93 25.95 180.68 23.57Q181.05 22.38 181.32 21.04Q181.60 19.70 181.78 18.27Q181.95 16.85 182.04 15.36Q182.13 13.88 182.13 12.35Q182.13 8.63 182.16 6.60Q182.20 4.57 182.40 3.79Q182.60 3 183.05 3Q183.38 3 183.53 3.85Q183.68 4.70 183.72 6.72Q183.78 8.75 183.78 12.25Q183.78 13.52 183.71 14.77Q183.65 16.02 183.54 17.23Q183.43 18.42 183.24 19.57Q183.05 20.73 182.81 21.81Q182.57 22.90 182.25 23.92Q181.43 26.63 180 28.69Q178.57 30.75 176.49 31.91Q174.40 33.08 171.55 33.08ZM199.65 33.20Q199.15 33.20 198.95 32.46Q198.75 31.73 198.75 29.82Q198.75 28.90 198.80 27.11Q198.85 25.32 198.93 23.04Q199 20.75 199.10 18.25Q199.20 15.75 199.28 13.40Q199.35 11.05 199.40 9.15Q199.45 7.25 199.45 6.15Q199.45 5 198.97 4.74Q198.50 4.47 196.95 4.47Q195.18 4.47 193.39 4.75Q191.60 5.02 189.93 5.02Q189.53 5.02 189.20 4.99Q188.88 4.95 188.70 4.81Q188.53 4.67 188.53 4.42Q188.53 4.07 189.19 3.79Q189.85 3.50 191.14 3.26Q192.43 3.02 194.35 2.86Q196.28 2.70 198.80 2.61Q201.32 2.52 204.43 2.52Q205.80 2.52 207.09 2.59Q208.38 2.65 209.47 2.76Q210.57 2.88 211.39 3.04Q212.20 3.20 212.66 3.40Q213.13 3.60 213.13 3.82Q213.13 4.07 212.89 4.17Q212.65 4.27 212.24 4.30Q211.82 4.32 211.28 4.32Q210.05 4.32 208.89 4.20Q207.72 4.07 206.20 4.07Q203.82 4.07 202.78 4.30Q201.72 4.52 201.47 5.31Q201.22 6.10 201.22 7.82Q201.22 9.02 201.19 10.49Q201.15 11.95 201.10 13.60Q201.05 15.25 200.97 16.99Q200.90 18.73 200.82 20.45Q200.75 22.17 200.70 23.81Q200.65 25.45 200.61 26.90Q200.57 28.35 200.57 29.52Q200.57 30.98 200.50 31.77Q200.43 32.58 200.22 32.89Q200.03 33.20 199.65 33.20Z"/></g></g></g></svg>