<svg xmlns="http://www.w3.org/2000/svg" viewBox="0 1.4500000476837158 240.85000610351562 32.630001068115234" data-asc="0.645" width="240.85000610351562" height="32.630001068115234"><defs/><g><g fill="#000000"><g transform="translate(0, 0)"><path d="M5.38 32.55Q4.10 32.55 3.21 32.02Q2.33 31.50 1.75 30.49Q1.18 29.48 0.85 28.02Q0.38 25.88 0.19 22.82Q0 19.77 0 16Q0 13.30 0.13 10.90Q0.25 8.50 0.58 6.67Q0.95 4.52 1.78 3.26Q2.60 2 4.35 2Q8.40 2 11.89 2.92Q15.38 3.85 18.18 5.41Q20.98 6.97 22.96 8.91Q24.95 10.85 26 12.91Q27.05 14.97 27.05 16.88Q27.05 19.25 26.10 21.54Q25.15 23.82 23.34 25.81Q21.53 27.80 18.89 29.31Q16.25 30.82 12.85 31.69Q9.45 32.55 5.38 32.55M5.78 30.95Q9.65 30.95 12.76 30.11Q15.88 29.27 18.24 27.85Q20.60 26.43 22.19 24.61Q23.78 22.80 24.58 20.80Q25.38 18.80 25.38 16.88Q25.38 15.25 24.40 13.43Q23.43 11.60 21.60 9.85Q19.78 8.10 17.20 6.67Q14.63 5.25 11.40 4.40Q8.18 3.55 4.43 3.55Q3.58 3.55 3.06 4.42Q2.55 5.30 2.28 6.77Q2 8.20 1.84 10.06Q1.68 11.92 1.68 13.95Q1.68 18.85 1.84 22.27Q2 25.70 2.53 27.77Q3.35 30.95 5.78 30.95ZM60.03 33.25Q59.60 33.25 59.33 32.74Q59.05 32.23 58.85 31.40Q58.63 30.50 58.30 29.19Q57.98 27.88 57.65 26.50Q57.33 25.13 57.05 23.98Q56.78 22.82 56.63 22.23Q56.42 21.38 55.96 21.01Q55.50 20.65 54.25 20.55Q53.63 20.50 52.19 20.40Q50.75 20.30 49.04 20.21Q47.33 20.13 45.85 20.13Q43.63 20.13 41.35 20.21Q39.08 20.30 37.48 20.40Q36.15 20.48 35.60 20.82Q35.05 21.17 34.73 22.17Q34.42 23.10 34.05 24.49Q33.67 25.88 33.29 27.40Q32.90 28.93 32.58 30.32Q32.25 31.65 31.94 32.16Q31.63 32.67 31.13 32.67Q30.95 32.67 30.81 32.55Q30.68 32.42 30.61 32.16Q30.55 31.90 30.55 31.50Q30.55 30.63 30.88 29.01Q31.20 27.40 31.75 25.36Q32.30 23.32 32.98 21.13Q33.65 18.92 34.35 16.85Q35.05 14.77 35.69 13.09Q36.33 11.40 36.77 10.42Q37.65 8.57 38.66 7Q39.67 5.42 40.86 4.26Q42.05 3.10 43.42 2.45Q44.80 1.80 46.40 1.80Q49.25 1.80 51.30 3.97Q53.35 6.15 54.83 9.50Q55.28 10.50 55.86 12.29Q56.45 14.07 57.10 16.31Q57.75 18.55 58.35 20.92Q58.95 23.30 59.45 25.54Q59.95 27.77 60.24 29.57Q60.53 31.38 60.53 32.42Q60.53 32.85 60.41 33.05Q60.30 33.25 60.03 33.25M54.40 18.77Q54.98 18.77 55.19 18.50Q55.40 18.23 55.40 17.55Q55.40 16.57 55.04 15.06Q54.67 13.55 54.05 11.82Q53.42 10.10 52.60 8.55Q51.42 6.30 49.86 4.77Q48.30 3.25 46.45 3.25Q44.65 3.25 42.96 4.63Q41.28 6 39.88 8.35Q39.28 9.32 38.64 10.59Q38 11.85 37.45 13.15Q36.90 14.45 36.55 15.59Q36.20 16.73 36.20 17.50Q36.20 18.13 36.67 18.35Q37.15 18.57 38.73 18.57Q42.92 18.57 45.94 18.63Q48.95 18.67 51.01 18.73Q53.08 18.77 54.40 18.77ZM71.33 32.75Q70.88 32.75 70.75 32.27Q70.63 31.80 70.55 30.80Q70.53 30.25 70.50 29.46Q70.48 28.68 70.46 27.80Q70.45 26.93 70.43 26.05Q70.40 25.18 70.38 24.45Q70.33 23.20 70.10 22.32Q69.88 21.45 68.80 20.67Q67.68 19.88 66.59 18.96Q65.50 18.05 64.68 17Q63.80 15.88 63.04 14.18Q62.28 12.47 61.70 10.55Q61.13 8.63 60.80 6.75Q60.48 4.88 60.48 3.42Q60.48 2.95 60.55 2.64Q60.63 2.32 60.80 2.16Q60.98 2 61.25 2Q61.60 2 61.88 2.84Q62.15 3.67 62.33 5.50Q62.48 6.95 62.83 8.49Q63.18 10.02 63.73 11.50Q64.53 13.63 65.65 15.43Q66.78 17.23 68.20 18.30Q69.63 19.38 71.30 19.38Q72.75 19.38 74.20 18.49Q75.65 17.60 76.95 16.18Q78.70 14.25 80.04 11.75Q81.38 9.25 81.93 7Q82.50 4.70 82.83 3.66Q83.15 2.63 83.58 2.63Q83.78 2.63 83.90 2.74Q84.03 2.85 84.08 3.07Q84.13 3.30 84.13 3.65Q84.13 5.25 83.56 7.14Q83.00 9.02 82.04 10.96Q81.08 12.90 79.85 14.66Q78.63 16.42 77.30 17.75Q76.28 18.77 75.14 19.67Q74.00 20.57 73.43 21.13Q72.98 21.55 72.76 21.98Q72.55 22.40 72.46 22.96Q72.38 23.52 72.33 24.35Q72.30 25.02 72.28 25.95Q72.25 26.88 72.23 27.85Q72.20 28.82 72.16 29.71Q72.13 30.60 72.05 31.25Q71.98 32 71.83 32.38Q71.68 32.75 71.33 32.75ZM110.83 34.08Q107.38 34.08 105.43 32.85Q103.48 31.63 102.61 29.24Q101.75 26.85 101.48 23.38Q101.40 22.42 101.36 21.41Q101.33 20.40 101.30 19.31Q101.28 18.23 101.28 17.05Q101.28 15.88 101.28 14.63Q101.28 10.63 101.94 8.05Q102.60 5.47 104.14 4.04Q105.68 2.60 108.30 2.02Q110.93 1.45 114.83 1.45Q116.68 1.45 118.41 1.57Q120.15 1.70 121.51 1.92Q122.88 2.15 123.68 2.44Q124.48 2.72 124.48 3.07Q124.48 3.32 124.30 3.41Q124.13 3.50 123.78 3.50Q123.03 3.50 121.71 3.30Q120.40 3.10 118.68 2.90Q116.95 2.70 114.95 2.70Q111.68 2.70 109.43 3.16Q107.18 3.63 105.81 4.75Q104.45 5.88 103.84 7.85Q103.23 9.82 103.23 12.82Q103.23 14.25 103.58 14.86Q103.93 15.47 105.31 15.61Q106.70 15.75 109.83 15.75Q110.30 15.75 111.24 15.75Q112.18 15.75 113.24 15.75Q114.30 15.75 115.19 15.75Q116.08 15.75 116.45 15.75Q118.35 15.75 118.94 15.90Q119.53 16.05 119.53 16.42Q119.53 16.90 118.95 17.04Q118.38 17.17 117.15 17.17Q116.55 17.17 115.66 17.17Q114.78 17.17 113.76 17.19Q112.75 17.20 111.79 17.20Q110.83 17.20 110.10 17.20Q106.90 17.20 105.44 17.32Q103.98 17.45 103.59 18.05Q103.20 18.65 103.20 20.05Q103.20 22.57 103.36 24.56Q103.53 26.55 103.98 28.01Q104.43 29.48 105.29 30.44Q106.15 31.40 107.53 31.86Q108.90 32.33 110.90 32.33Q113.53 32.33 115.98 32.13Q118.43 31.93 120.34 31.71Q122.25 31.50 123.23 31.50Q123.78 31.50 123.99 31.61Q124.20 31.73 124.20 32Q124.20 32.40 122.98 32.77Q121.75 33.15 119.76 33.44Q117.78 33.73 115.43 33.90Q113.08 34.08 110.83 34.08ZM138.45 32.92Q137.60 32.92 136.83 31.91Q136.05 30.90 135.36 29.40Q134.68 27.90 134.13 26.40Q133.72 25.32 133.08 23.34Q132.43 21.35 131.66 18.90Q130.90 16.45 130.13 13.91Q129.35 11.38 128.71 9.16Q128.08 6.95 127.69 5.42Q127.30 3.90 127.30 3.50Q127.30 3.02 127.51 2.80Q127.73 2.57 128.13 2.57Q128.50 2.57 128.78 2.89Q129.05 3.20 129.25 3.92Q129.88 6.20 130.71 9.21Q131.55 12.22 132.49 15.40Q133.43 18.57 134.33 21.42Q135.22 24.27 135.97 26.23Q136.85 28.50 137.47 29.84Q138.10 31.18 138.47 31.18Q138.90 31.18 139.88 29.88Q140.85 28.57 142.13 26.52Q143.35 24.55 144.72 21.94Q146.10 19.32 147.51 16.38Q148.93 13.43 150.24 10.41Q151.55 7.40 152.65 4.63Q152.85 4.15 153.01 3.85Q153.18 3.55 153.36 3.39Q153.55 3.22 153.78 3.22Q154.05 3.22 154.24 3.36Q154.43 3.50 154.54 3.74Q154.65 3.97 154.65 4.30Q154.65 4.88 154.09 6.40Q153.53 7.92 152.59 10.06Q151.65 12.20 150.49 14.60Q149.33 17 148.11 19.36Q146.90 21.73 145.79 23.71Q144.68 25.70 143.85 26.98Q143 28.27 142.01 29.65Q141.03 31.02 140.10 31.98Q139.18 32.92 138.45 32.92ZM167.28 34.08Q163.83 34.08 161.88 32.85Q159.93 31.63 159.06 29.24Q158.20 26.85 157.93 23.38Q157.85 22.42 157.81 21.41Q157.78 20.40 157.75 19.31Q157.73 18.23 157.73 17.05Q157.73 15.88 157.73 14.63Q157.73 10.63 158.39 8.05Q159.05 5.47 160.59 4.04Q162.13 2.60 164.75 2.02Q167.38 1.45 171.28 1.45Q173.13 1.45 174.86 1.57Q176.60 1.70 177.96 1.92Q179.33 2.15 180.13 2.44Q180.93 2.72 180.93 3.07Q180.93 3.32 180.75 3.41Q180.58 3.50 180.23 3.50Q179.48 3.50 178.16 3.30Q176.85 3.10 175.13 2.90Q173.40 2.70 171.40 2.70Q168.13 2.70 165.88 3.16Q163.63 3.63 162.26 4.75Q160.90 5.88 160.29 7.85Q159.68 9.82 159.68 12.82Q159.68 14.25 160.03 14.86Q160.38 15.47 161.76 15.61Q163.15 15.75 166.28 15.75Q166.75 15.75 167.69 15.75Q168.63 15.75 169.69 15.75Q170.75 15.75 171.64 15.75Q172.53 15.75 172.90 15.75Q174.80 15.75 175.39 15.90Q175.98 16.05 175.98 16.42Q175.98 16.90 175.40 17.04Q174.83 17.17 173.60 17.17Q173.00 17.17 172.11 17.17Q171.23 17.17 170.21 17.19Q169.20 17.20 168.24 17.20Q167.28 17.20 166.55 17.20Q163.35 17.20 161.89 17.32Q160.43 17.45 160.04 18.05Q159.65 18.65 159.65 20.05Q159.65 22.57 159.81 24.56Q159.98 26.55 160.43 28.01Q160.88 29.48 161.74 30.44Q162.60 31.40 163.98 31.86Q165.35 32.33 167.35 32.33Q169.98 32.33 172.43 32.13Q174.88 31.93 176.79 31.71Q178.70 31.50 179.68 31.50Q180.23 31.50 180.44 31.61Q180.65 31.73 180.65 32Q180.65 32.40 179.43 32.77Q178.20 33.15 176.21 33.44Q174.23 33.73 171.88 33.90Q169.53 34.08 167.28 34.08ZM187.83 33.45Q187.40 33.45 187.15 32.84Q186.90 32.23 186.78 31.10Q186.70 30.48 186.59 28.74Q186.48 27 186.35 24.61Q186.23 22.23 186.09 19.61Q185.95 17 185.84 14.56Q185.73 12.13 185.66 10.30Q185.60 8.47 185.60 7.72Q185.60 6.13 185.76 5.07Q185.93 4.02 186.39 3.50Q186.85 2.97 187.78 2.97Q188.65 2.97 189.91 4.41Q191.18 5.85 193.20 8.96Q195.23 12.07 198.38 17.13Q202.93 24.40 205.38 27.57Q207.83 30.75 208.68 30.75Q209.15 30.75 209.46 30.43Q209.78 30.10 209.93 29.10Q210.08 28.10 210.08 26.07Q210.08 25.20 210.01 23.42Q209.95 21.65 209.86 19.39Q209.78 17.13 209.66 14.77Q209.55 12.42 209.46 10.35Q209.38 8.27 209.31 6.86Q209.25 5.45 209.25 5.13Q209.25 3.88 209.43 3.47Q209.60 3.07 210.00 3.07Q210.18 3.07 210.33 3.16Q210.48 3.25 210.59 3.47Q210.70 3.70 210.79 4.14Q210.88 4.57 210.93 5.25Q210.98 5.82 211.05 7.41Q211.13 9 211.24 11.19Q211.35 13.38 211.45 15.77Q211.55 18.17 211.65 20.42Q211.75 22.67 211.80 24.41Q211.85 26.15 211.85 26.98Q211.85 28.82 211.56 30.11Q211.28 31.40 210.60 32.05Q209.93 32.70 208.73 32.70Q207.48 32.70 205.78 30.85Q204.08 29 201.91 25.75Q199.75 22.50 197.10 18.35Q195.45 15.75 193.93 13.39Q192.40 11.02 191.16 9.19Q189.93 7.35 189.09 6.29Q188.25 5.22 187.98 5.22Q187.55 5.22 187.43 5.80Q187.30 6.38 187.30 8.13Q187.30 9.70 187.40 11.67Q187.50 13.65 187.65 15.80Q187.80 17.95 187.99 20.14Q188.18 22.32 188.33 24.36Q188.48 26.40 188.58 28.13Q188.68 29.85 188.68 31.10Q188.68 32.60 188.50 33.02Q188.33 33.45 187.83 33.45ZM227.38 33.20Q226.88 33.20 226.68 32.46Q226.48 31.73 226.48 29.82Q226.48 28.90 226.53 27.11Q226.58 25.32 226.65 23.04Q226.73 20.75 226.83 18.25Q226.93 15.75 227.00 13.40Q227.08 11.05 227.13 9.15Q227.18 7.25 227.18 6.15Q227.18 5 226.70 4.74Q226.23 4.47 224.68 4.47Q222.90 4.47 221.11 4.75Q219.33 5.02 217.65 5.02Q217.25 5.02 216.93 4.99Q216.60 4.95 216.43 4.81Q216.25 4.67 216.25 4.42Q216.25 4.07 216.91 3.79Q217.58 3.50 218.86 3.26Q220.15 3.02 222.08 2.86Q224.00 2.70 226.53 2.61Q229.05 2.52 232.15 2.52Q233.53 2.52 234.81 2.59Q236.10 2.65 237.20 2.76Q238.30 2.88 239.11 3.04Q239.93 3.20 240.39 3.40Q240.85 3.60 240.85 3.82Q240.85 4.07 240.61 4.17Q240.38 4.27 239.96 4.30Q239.55 4.32 239.00 4.32Q237.78 4.32 236.61 4.20Q235.45 4.07 233.93 4.07Q231.55 4.07 230.50 4.30Q229.45 4.52 229.20 5.31Q228.95 6.10 228.95 7.82Q228.95 9.02 228.91 10.49Q228.88 11.95 228.83 13.60Q228.78 15.25 228.70 16.99Q228.63 18.73 228.55 20.45Q228.48 22.17 228.43 23.81Q228.38 25.45 228.34 26.90Q228.30 28.35 228.30 29.52Q228.30 30.98 228.23 31.77Q228.15 32.58 227.95 32.89Q227.75 33.20 227.38 33.20Z"/></g></g></g></svg>