<svg xmlns="http://www.w3.org/2000/svg" viewBox="0 0.25 253.47000122070312 33.83000183105469" data-asc="0.645" width="253.47000122070312" height="33.83000183105469"><defs/><g><g fill="#000000"><g transform="translate(0, 0)"><path d="M3.05 33.05Q2.70 33.05 2.42 32.51Q2.15 31.98 1.98 31.24Q1.80 30.50 1.73 29.95Q1.60 29.07 1.39 27.31Q1.18 25.55 0.94 23.36Q0.70 21.17 0.49 18.99Q0.28 16.80 0.14 15.04Q0 13.27 0 12.42Q0 10 0.45 8.13Q0.90 6.25 1.70 4.88Q2.50 3.50 3.55 2.57Q5.20 1.15 7.54 0.70Q9.88 0.25 12.48 0.25Q13.98 0.25 15.41 0.38Q16.85 0.50 17.99 0.72Q19.13 0.95 19.80 1.24Q20.48 1.52 20.48 1.82Q20.48 2.05 20.24 2.13Q20 2.20 19.60 2.20Q18.58 2.20 16.56 1.89Q14.55 1.57 12.13 1.57Q9.48 1.57 7.59 2.14Q5.70 2.70 4.48 3.88Q3.48 4.82 2.91 6.15Q2.35 7.47 2.11 9.24Q1.88 11 1.88 13.27Q1.88 14.18 1.94 14.88Q2 15.57 2.15 16.07Q2.30 16.57 2.60 16.82Q2.90 17.07 3.38 17.07Q4.18 17.07 5.58 16.96Q6.97 16.85 8.56 16.69Q10.15 16.52 11.59 16.41Q13.03 16.30 13.93 16.30Q15.20 16.30 15.88 16.39Q16.55 16.48 16.55 16.95Q16.55 17.13 16.43 17.29Q16.30 17.45 16.05 17.55Q15.70 17.67 14.24 17.65Q12.78 17.63 10.08 17.77Q7.38 17.92 3.30 18.57Q2.93 18.63 2.71 18.92Q2.50 19.23 2.50 19.80Q2.50 20.15 2.63 21.29Q2.75 22.42 2.94 23.95Q3.13 25.48 3.30 27.04Q3.48 28.60 3.60 29.84Q3.73 31.07 3.73 31.63Q3.73 32.52 3.56 32.79Q3.40 33.05 3.05 33.05ZM35.28 33.08Q30.68 33.08 28.21 30.51Q25.75 27.95 24.65 23.77Q24.38 22.73 24.18 21.57Q23.98 20.42 23.84 19.21Q23.70 18 23.63 16.73Q23.55 15.45 23.51 14.13Q23.48 12.80 23.48 11.42Q23.48 7.85 23.59 5.91Q23.70 3.97 23.95 3.24Q24.20 2.50 24.55 2.50Q24.85 2.50 24.99 3.30Q25.13 4.10 25.16 6.26Q25.20 8.42 25.20 12.52Q25.20 13.75 25.24 14.95Q25.28 16.15 25.35 17.29Q25.43 18.42 25.55 19.51Q25.68 20.60 25.85 21.61Q26.03 22.63 26.28 23.55Q27.23 27.18 29.36 29.38Q31.50 31.57 35.35 31.57Q37.70 31.57 39.45 30.56Q41.20 29.55 42.43 27.75Q43.65 25.95 44.40 23.57Q44.78 22.38 45.05 21.04Q45.33 19.70 45.50 18.27Q45.68 16.85 45.76 15.36Q45.85 13.88 45.85 12.35Q45.85 8.63 45.89 6.60Q45.93 4.57 46.13 3.79Q46.33 3 46.78 3Q47.10 3 47.25 3.85Q47.40 4.70 47.45 6.72Q47.50 8.75 47.50 12.25Q47.50 13.52 47.44 14.77Q47.38 16.02 47.26 17.23Q47.15 18.42 46.96 19.57Q46.78 20.73 46.54 21.81Q46.30 22.90 45.98 23.92Q45.15 26.63 43.73 28.69Q42.30 30.75 40.21 31.91Q38.13 33.08 35.28 33.08ZM54.58 33.45Q54.15 33.45 53.90 32.84Q53.65 32.23 53.52 31.10Q53.45 30.48 53.34 28.74Q53.23 27 53.10 24.61Q52.98 22.23 52.84 19.61Q52.70 17 52.59 14.56Q52.48 12.13 52.41 10.30Q52.35 8.47 52.35 7.72Q52.35 6.13 52.51 5.07Q52.68 4.02 53.14 3.50Q53.60 2.97 54.52 2.97Q55.40 2.97 56.66 4.41Q57.93 5.85 59.95 8.96Q61.98 12.07 65.13 17.13Q69.68 24.40 72.13 27.57Q74.58 30.75 75.43 30.75Q75.90 30.75 76.21 30.43Q76.53 30.10 76.68 29.10Q76.83 28.10 76.83 26.07Q76.83 25.20 76.76 23.42Q76.70 21.65 76.61 19.39Q76.53 17.13 76.41 14.77Q76.30 12.42 76.21 10.35Q76.13 8.27 76.06 6.86Q76 5.45 76 5.13Q76 3.88 76.18 3.47Q76.35 3.07 76.75 3.07Q76.93 3.07 77.08 3.16Q77.22 3.25 77.34 3.47Q77.45 3.70 77.54 4.14Q77.63 4.57 77.68 5.25Q77.72 5.82 77.80 7.41Q77.88 9 77.99 11.19Q78.10 13.38 78.20 15.77Q78.30 18.17 78.40 20.42Q78.50 22.67 78.55 24.41Q78.60 26.15 78.60 26.98Q78.60 28.82 78.31 30.11Q78.03 31.40 77.35 32.05Q76.68 32.70 75.47 32.70Q74.22 32.70 72.53 30.85Q70.83 29 68.66 25.75Q66.50 22.50 63.85 18.35Q62.20 15.75 60.68 13.39Q59.15 11.02 57.91 9.19Q56.68 7.35 55.84 6.29Q55 5.22 54.73 5.22Q54.30 5.22 54.18 5.80Q54.05 6.38 54.05 8.13Q54.05 9.70 54.15 11.67Q54.25 13.65 54.40 15.80Q54.55 17.95 54.74 20.14Q54.93 22.32 55.08 24.36Q55.23 26.40 55.33 28.13Q55.43 29.85 55.43 31.10Q55.43 32.60 55.25 33.02Q55.08 33.45 54.58 33.45ZM89.02 32.55Q87.75 32.55 86.86 32.02Q85.97 31.50 85.40 30.49Q84.82 29.48 84.50 28.02Q84.02 25.88 83.84 22.82Q83.65 19.77 83.65 16Q83.65 13.30 83.77 10.90Q83.90 8.50 84.22 6.67Q84.60 4.52 85.42 3.26Q86.25 2 88.00 2Q92.05 2 95.54 2.92Q99.02 3.85 101.82 5.41Q104.63 6.97 106.61 8.91Q108.60 10.85 109.65 12.91Q110.70 14.97 110.70 16.88Q110.70 19.25 109.75 21.54Q108.80 23.82 106.99 25.81Q105.17 27.80 102.54 29.31Q99.90 30.82 96.50 31.69Q93.10 32.55 89.02 32.55M89.42 30.95Q93.30 30.95 96.41 30.11Q99.52 29.27 101.89 27.85Q104.25 26.43 105.84 24.61Q107.42 22.80 108.22 20.80Q109.02 18.80 109.02 16.88Q109.02 15.25 108.05 13.43Q107.07 11.60 105.25 9.85Q103.42 8.10 100.85 6.67Q98.27 5.25 95.05 4.40Q91.82 3.55 88.07 3.55Q87.22 3.55 86.71 4.42Q86.20 5.30 85.92 6.77Q85.65 8.20 85.49 10.06Q85.32 11.92 85.32 13.95Q85.32 18.85 85.49 22.27Q85.65 25.70 86.17 27.77Q87.00 30.95 89.42 30.95ZM115.25 33.30Q114.80 33.30 114.59 32.60Q114.37 31.90 114.30 30.32Q114.27 29.63 114.22 28.41Q114.17 27.20 114.11 25.71Q114.05 24.23 114.00 22.66Q113.95 21.10 113.92 19.65Q113.90 18.20 113.90 17.13Q113.90 14 114.02 11.44Q114.15 8.88 114.59 6.90Q115.02 4.92 115.95 3.59Q116.87 2.25 118.47 1.56Q120.07 0.88 122.55 0.88Q125.10 0.88 127.27 1.36Q129.45 1.85 131.07 2.86Q132.70 3.88 133.60 5.42Q134.50 6.97 134.50 9.07Q134.50 11.35 133.26 12.92Q132.02 14.50 130.07 15.49Q128.13 16.48 125.94 17Q123.75 17.52 121.85 17.73Q120.82 17.82 120.54 17.91Q120.25 18 120.25 18.20Q120.25 18.35 120.32 18.51Q120.40 18.67 120.65 18.95Q120.90 19.23 121.41 19.71Q121.92 20.20 122.77 21Q123.80 21.98 125.21 23.34Q126.62 24.70 128.11 26.16Q129.60 27.63 130.88 28.94Q132.15 30.25 132.95 31.14Q133.75 32.02 133.75 32.20Q133.75 32.38 133.70 32.49Q133.65 32.60 133.56 32.65Q133.47 32.70 133.30 32.70Q132.88 32.70 132.05 32.13Q131.22 31.55 130.11 30.56Q129 29.57 127.71 28.32Q126.42 27.07 125.05 25.73Q122.77 23.48 121.02 21.86Q119.27 20.25 118.16 19.38Q117.05 18.50 116.65 18.50Q116.32 18.50 116.14 18.79Q115.95 19.07 115.87 19.81Q115.80 20.55 115.79 21.86Q115.77 23.17 115.77 25.25Q115.77 25.73 115.80 26.49Q115.82 27.25 115.85 28.11Q115.87 28.98 115.90 29.76Q115.92 30.55 115.95 31.10Q115.97 31.65 115.97 31.77Q115.97 32.52 115.82 32.91Q115.67 33.30 115.25 33.30M119.07 16.63Q120.20 16.63 121.95 16.42Q123.70 16.22 125.62 15.72Q127.55 15.22 129.26 14.36Q130.97 13.50 132.05 12.19Q133.13 10.88 133.13 9.05Q133.13 7.15 132.19 5.85Q131.25 4.55 129.69 3.77Q128.13 3 126.25 2.65Q124.37 2.30 122.50 2.30Q120.60 2.30 119.30 2.82Q118.00 3.35 117.22 4.47Q116.45 5.60 116.10 7.45Q115.92 8.42 115.84 9.39Q115.75 10.35 115.71 11.22Q115.67 12.10 115.67 12.82Q115.67 14.32 115.82 15.15Q115.97 15.97 116.69 16.30Q117.40 16.63 119.07 16.63ZM167.80 33.25Q167.38 33.25 167.10 32.74Q166.82 32.23 166.63 31.40Q166.40 30.50 166.07 29.19Q165.75 27.88 165.42 26.50Q165.10 25.13 164.82 23.98Q164.55 22.82 164.40 22.23Q164.20 21.38 163.74 21.01Q163.27 20.65 162.02 20.55Q161.40 20.50 159.96 20.40Q158.52 20.30 156.81 20.21Q155.10 20.13 153.63 20.13Q151.40 20.13 149.13 20.21Q146.85 20.30 145.25 20.40Q143.92 20.48 143.38 20.82Q142.82 21.17 142.50 22.17Q142.20 23.10 141.82 24.49Q141.45 25.88 141.06 27.40Q140.67 28.93 140.35 30.32Q140.02 31.65 139.71 32.16Q139.40 32.67 138.90 32.67Q138.72 32.67 138.59 32.55Q138.45 32.42 138.39 32.16Q138.32 31.90 138.32 31.50Q138.32 30.63 138.65 29.01Q138.97 27.40 139.52 25.36Q140.07 23.32 140.75 21.13Q141.42 18.92 142.13 16.85Q142.82 14.77 143.46 13.09Q144.10 11.40 144.55 10.42Q145.42 8.57 146.44 7Q147.45 5.42 148.64 4.26Q149.82 3.10 151.20 2.45Q152.57 1.80 154.17 1.80Q157.02 1.80 159.07 3.97Q161.13 6.15 162.60 9.50Q163.05 10.50 163.64 12.29Q164.22 14.07 164.88 16.31Q165.52 18.55 166.13 20.92Q166.72 23.30 167.22 25.54Q167.72 27.77 168.01 29.57Q168.30 31.38 168.30 32.42Q168.30 32.85 168.19 33.05Q168.07 33.25 167.80 33.25M162.17 18.77Q162.75 18.77 162.96 18.50Q163.17 18.23 163.17 17.55Q163.17 16.57 162.81 15.06Q162.45 13.55 161.82 11.82Q161.20 10.10 160.38 8.55Q159.20 6.30 157.64 4.77Q156.07 3.25 154.22 3.25Q152.42 3.25 150.74 4.63Q149.05 6 147.65 8.35Q147.05 9.32 146.41 10.59Q145.77 11.85 145.22 13.15Q144.67 14.45 144.32 15.59Q143.97 16.73 143.97 17.50Q143.97 18.13 144.45 18.35Q144.92 18.57 146.50 18.57Q150.70 18.57 153.71 18.63Q156.72 18.67 158.79 18.73Q160.85 18.77 162.17 18.77ZM173.45 32.42Q173.07 32.42 172.94 31.82Q172.80 31.23 172.80 30.45Q172.80 29.98 172.80 28.49Q172.80 27 172.81 24.81Q172.82 22.63 172.84 20.07Q172.85 17.52 172.87 14.93Q172.90 12.32 172.95 10Q173.00 7.67 173.05 5.97Q173.12 4.02 173.27 3.41Q173.42 2.80 173.90 2.80Q174.35 2.80 174.45 3.52Q174.55 4.25 174.55 5.70Q174.55 6.95 174.55 8.97Q174.55 11 174.54 13.45Q174.52 15.90 174.51 18.42Q174.50 20.95 174.47 23.25Q174.45 25.55 174.42 27.30Q174.40 29.05 174.37 29.88Q174.35 30.95 174.22 31.50Q174.10 32.05 173.91 32.24Q173.72 32.42 173.45 32.42ZM188.62 33.45Q186.42 33.45 184.52 33.01Q182.62 32.58 181.19 31.94Q179.75 31.30 178.95 30.65Q178.15 30 178.15 29.57Q178.15 29.45 178.20 29.36Q178.25 29.27 178.36 29.23Q178.47 29.18 178.60 29.18Q179.20 29.18 180.47 29.80Q181.75 30.43 183.79 31.06Q185.82 31.70 188.67 31.70Q191.35 31.70 193.31 31.48Q195.27 31.25 196.56 30.66Q197.85 30.07 198.47 29.04Q199.10 28 199.10 26.38Q199.10 24.75 198.34 23.51Q197.57 22.27 196.21 21.26Q194.85 20.25 193.02 19.36Q191.20 18.48 189.10 17.57Q186.85 16.60 184.94 15.66Q183.02 14.72 181.60 13.66Q180.17 12.60 179.39 11.25Q178.60 9.90 178.60 8.07Q178.60 6.30 179.37 5.05Q180.15 3.80 181.45 2.99Q182.75 2.17 184.32 1.72Q185.90 1.27 187.51 1.10Q189.12 0.92 190.50 0.92Q192.82 0.92 194.74 1.32Q196.65 1.72 198.04 2.34Q199.42 2.95 200.17 3.59Q200.92 4.22 200.92 4.72Q200.92 4.82 200.88 4.94Q200.82 5.05 200.74 5.13Q200.65 5.20 200.50 5.20Q200.05 5.20 198.86 4.49Q197.67 3.77 195.67 3.07Q193.67 2.38 190.72 2.38Q188.90 2.38 187.11 2.64Q185.32 2.90 183.85 3.52Q182.37 4.15 181.49 5.24Q180.60 6.32 180.60 8Q180.60 9.50 181.29 10.63Q181.97 11.75 183.19 12.64Q184.40 13.52 186.04 14.30Q187.67 15.07 189.55 15.85Q192.02 16.88 194.12 17.94Q196.22 19 197.77 20.21Q199.32 21.42 200.19 22.89Q201.05 24.35 201.05 26.15Q201.05 28.30 200.17 29.73Q199.30 31.15 197.66 31.96Q196.02 32.77 193.74 33.11Q191.45 33.45 188.62 33.45ZM215.35 34.08Q211.90 34.08 209.95 32.85Q208.00 31.63 207.14 29.24Q206.27 26.85 206.00 23.38Q205.92 22.42 205.89 21.41Q205.85 20.40 205.82 19.31Q205.80 18.23 205.80 17.05Q205.80 15.88 205.80 14.63Q205.80 10.63 206.46 8.05Q207.12 5.47 208.66 4.04Q210.20 2.60 212.82 2.02Q215.45 1.45 219.35 1.45Q221.20 1.45 222.94 1.57Q224.67 1.70 226.04 1.92Q227.40 2.15 228.20 2.44Q229 2.72 229 3.07Q229 3.32 228.82 3.41Q228.65 3.50 228.30 3.50Q227.55 3.50 226.24 3.30Q224.92 3.10 223.20 2.90Q221.47 2.70 219.47 2.70Q216.20 2.70 213.95 3.16Q211.70 3.63 210.34 4.75Q208.97 5.88 208.36 7.85Q207.75 9.82 207.75 12.82Q207.75 14.25 208.10 14.86Q208.45 15.47 209.84 15.61Q211.22 15.75 214.35 15.75Q214.82 15.75 215.76 15.75Q216.70 15.75 217.76 15.75Q218.82 15.75 219.71 15.75Q220.60 15.75 220.97 15.75Q222.88 15.75 223.46 15.90Q224.05 16.05 224.05 16.42Q224.05 16.90 223.47 17.04Q222.90 17.17 221.67 17.17Q221.07 17.17 220.19 17.17Q219.30 17.17 218.29 17.19Q217.27 17.20 216.31 17.20Q215.35 17.20 214.62 17.20Q211.42 17.20 209.96 17.32Q208.50 17.45 208.11 18.05Q207.72 18.65 207.72 20.05Q207.72 22.57 207.89 24.56Q208.05 26.55 208.50 28.01Q208.95 29.48 209.81 30.44Q210.67 31.40 212.05 31.86Q213.42 32.33 215.42 32.33Q218.05 32.33 220.50 32.13Q222.95 31.93 224.86 31.71Q226.77 31.50 227.75 31.50Q228.30 31.50 228.51 31.61Q228.72 31.73 228.72 32Q228.72 32.40 227.50 32.77Q226.27 33.15 224.29 33.44Q222.30 33.73 219.95 33.90Q217.60 34.08 215.35 34.08ZM234.22 33.30Q233.77 33.30 233.56 32.60Q233.35 31.90 233.27 30.32Q233.25 29.63 233.20 28.41Q233.15 27.20 233.09 25.71Q233.02 24.23 232.97 22.66Q232.92 21.10 232.90 19.65Q232.87 18.20 232.87 17.13Q232.87 14 233.00 11.44Q233.12 8.88 233.56 6.90Q234.00 4.92 234.92 3.59Q235.85 2.25 237.45 1.56Q239.05 0.88 241.52 0.88Q244.07 0.88 246.25 1.36Q248.42 1.85 250.05 2.86Q251.67 3.88 252.57 5.42Q253.47 6.97 253.47 9.07Q253.47 11.35 252.24 12.92Q251 14.50 249.05 15.49Q247.10 16.48 244.91 17Q242.72 17.52 240.82 17.73Q239.80 17.82 239.51 17.91Q239.22 18 239.22 18.20Q239.22 18.35 239.30 18.51Q239.37 18.67 239.62 18.95Q239.87 19.23 240.39 19.71Q240.90 20.20 241.75 21Q242.77 21.98 244.19 23.34Q245.60 24.70 247.09 26.16Q248.57 27.63 249.85 28.94Q251.13 30.25 251.92 31.14Q252.72 32.02 252.72 32.20Q252.72 32.38 252.67 32.49Q252.63 32.60 252.54 32.65Q252.45 32.70 252.27 32.70Q251.85 32.70 251.02 32.13Q250.20 31.55 249.09 30.56Q247.97 29.57 246.69 28.32Q245.40 27.07 244.02 25.73Q241.75 23.48 240.00 21.86Q238.25 20.25 237.14 19.38Q236.02 18.50 235.62 18.50Q235.30 18.50 235.11 18.79Q234.92 19.07 234.85 19.81Q234.77 20.55 234.76 21.86Q234.75 23.17 234.75 25.25Q234.75 25.73 234.77 26.49Q234.80 27.25 234.82 28.11Q234.85 28.98 234.87 29.76Q234.90 30.55 234.92 31.10Q234.95 31.65 234.95 31.77Q234.95 32.52 234.80 32.91Q234.65 33.30 234.22 33.30M238.05 16.63Q239.17 16.63 240.92 16.42Q242.67 16.22 244.60 15.72Q246.52 15.22 248.24 14.36Q249.95 13.50 251.02 12.19Q252.10 10.88 252.10 9.05Q252.10 7.15 251.16 5.85Q250.22 4.55 248.66 3.77Q247.10 3 245.22 2.65Q243.35 2.30 241.47 2.30Q239.57 2.30 238.27 2.82Q236.97 3.35 236.20 4.47Q235.42 5.60 235.07 7.45Q234.90 8.42 234.81 9.39Q234.72 10.35 234.69 11.22Q234.65 12.10 234.65 12.82Q234.65 14.32 234.80 15.15Q234.95 15.97 235.66 16.30Q236.37 16.63 238.05 16.63Z"/></g></g></g></svg>