<svg xmlns="http://www.w3.org/2000/svg" viewBox="0 1.4500000476837158 183.3800048828125 32.630001068115234" data-asc="0.645" width="183.3800048828125" height="32.630001068115234"><defs/><g><g fill="#000000"><g transform="translate(0, 0)"><path d="M1.08 33.45Q0.30 33.45 0.15 32.65Q0 31.85 0 30.55Q0 29.50 0 28.27Q0 27.05 0.01 25.70Q0.02 24.35 0.04 22.92Q0.05 21.50 0.08 20.07Q0.13 17.95 0.20 15.93Q0.28 13.90 0.38 12.14Q0.48 10.38 0.59 9.07Q0.70 7.77 0.80 7.13Q1.05 5.50 1.70 4.44Q2.35 3.38 3.35 2.85Q4.35 2.32 5.60 2.32Q7.38 2.32 8.48 3.38Q9.58 4.42 10.05 6.42Q10.33 7.55 10.64 9.22Q10.95 10.90 11.25 12.75Q11.55 14.60 11.81 16.32Q12.08 18.05 12.25 19.30Q12.53 21.15 12.88 22.51Q13.23 23.88 14.05 23.88Q14.73 23.88 15.05 22.86Q15.38 21.85 15.48 20.73Q15.65 19.15 15.86 17.21Q16.07 15.27 16.35 13.27Q16.63 11.27 16.93 9.45Q17.23 7.63 17.55 6.25Q17.98 4.47 19.11 3.45Q20.25 2.42 21.85 2.42Q22.85 2.42 23.71 2.88Q24.58 3.32 25.25 4.22Q25.93 5.13 26.35 6.50Q26.68 7.52 26.90 9.60Q27.13 11.67 27.26 14.45Q27.40 17.23 27.48 20.35Q27.50 21.65 27.53 22.98Q27.55 24.30 27.56 25.64Q27.58 26.98 27.58 28.27Q27.58 29.57 27.58 30.85Q27.58 31.77 27.40 32.20Q27.23 32.63 26.68 32.63Q26.30 32.63 26.09 32.29Q25.88 31.95 25.88 31.13Q25.88 29.95 25.88 28.65Q25.88 27.35 25.86 25.99Q25.85 24.63 25.84 23.23Q25.83 21.82 25.80 20.45Q25.75 17.60 25.65 15.01Q25.55 12.42 25.39 10.44Q25.23 8.45 24.90 7.45Q24.35 5.70 23.71 4.85Q23.08 4 21.80 4Q20.88 4 20.10 4.72Q19.33 5.45 18.98 7.05Q18.80 7.88 18.58 9.15Q18.35 10.42 18.13 11.96Q17.90 13.50 17.69 15.13Q17.48 16.75 17.29 18.30Q17.10 19.85 16.98 21.13Q16.75 23.48 16.04 24.64Q15.32 25.80 14.05 25.80Q12.40 25.80 11.76 24.14Q11.13 22.48 10.68 19.82Q10.50 18.80 10.25 17.36Q10 15.93 9.73 14.32Q9.45 12.72 9.18 11.21Q8.90 9.70 8.68 8.52Q8.45 7.35 8.30 6.75Q7.95 5.27 7.20 4.55Q6.45 3.82 5.55 3.82Q4.10 3.82 3.50 4.71Q2.90 5.60 2.55 7.75Q2.42 8.52 2.31 9.84Q2.20 11.15 2.13 12.80Q2.05 14.45 2 16.29Q1.95 18.13 1.95 20Q1.95 21.88 1.96 23.65Q1.98 25.43 1.98 26.98Q1.98 28.52 1.99 29.68Q2 30.82 2 31.45Q2 32.33 1.86 32.89Q1.73 33.45 1.08 33.45ZM42.18 34.08Q38.73 34.08 36.78 32.85Q34.83 31.63 33.96 29.24Q33.10 26.85 32.83 23.38Q32.75 22.42 32.71 21.41Q32.68 20.40 32.65 19.31Q32.63 18.23 32.63 17.05Q32.63 15.88 32.63 14.63Q32.63 10.63 33.29 8.05Q33.95 5.47 35.49 4.04Q37.03 2.60 39.65 2.02Q42.28 1.45 46.18 1.45Q48.03 1.45 49.76 1.57Q51.50 1.70 52.86 1.92Q54.23 2.15 55.03 2.44Q55.83 2.72 55.83 3.07Q55.83 3.32 55.65 3.41Q55.48 3.50 55.13 3.50Q54.38 3.50 53.06 3.30Q51.75 3.10 50.03 2.90Q48.30 2.70 46.30 2.70Q43.03 2.70 40.78 3.16Q38.53 3.63 37.16 4.75Q35.80 5.88 35.19 7.85Q34.58 9.82 34.58 12.82Q34.58 14.25 34.93 14.86Q35.28 15.47 36.66 15.61Q38.05 15.75 41.18 15.75Q41.65 15.75 42.59 15.75Q43.53 15.75 44.59 15.75Q45.65 15.75 46.54 15.75Q47.43 15.75 47.80 15.75Q49.70 15.75 50.29 15.90Q50.88 16.05 50.88 16.42Q50.88 16.90 50.30 17.04Q49.73 17.17 48.50 17.17Q47.90 17.17 47.01 17.17Q46.13 17.17 45.11 17.19Q44.10 17.20 43.14 17.20Q42.18 17.20 41.45 17.20Q38.25 17.20 36.79 17.32Q35.33 17.45 34.94 18.05Q34.55 18.65 34.55 20.05Q34.55 22.57 34.71 24.56Q34.88 26.55 35.33 28.01Q35.78 29.48 36.64 30.44Q37.50 31.40 38.88 31.86Q40.25 32.33 42.25 32.33Q44.88 32.33 47.33 32.13Q49.78 31.93 51.69 31.71Q53.60 31.50 54.58 31.50Q55.13 31.50 55.34 31.61Q55.55 31.73 55.55 32Q55.55 32.40 54.33 32.77Q53.10 33.15 51.11 33.44Q49.13 33.73 46.78 33.90Q44.43 34.08 42.18 34.08ZM70.05 34.08Q66.60 34.08 64.65 32.85Q62.70 31.63 61.84 29.24Q60.98 26.85 60.70 23.38Q60.63 22.42 60.59 21.41Q60.55 20.40 60.52 19.31Q60.50 18.23 60.50 17.05Q60.50 15.88 60.50 14.63Q60.50 10.63 61.16 8.05Q61.83 5.47 63.36 4.04Q64.90 2.60 67.53 2.02Q70.15 1.45 74.05 1.45Q75.90 1.45 77.64 1.57Q79.38 1.70 80.74 1.92Q82.10 2.15 82.90 2.44Q83.70 2.72 83.70 3.07Q83.70 3.32 83.53 3.41Q83.35 3.50 83 3.50Q82.25 3.50 80.94 3.30Q79.63 3.10 77.90 2.90Q76.17 2.70 74.17 2.70Q70.90 2.70 68.65 3.16Q66.40 3.63 65.04 4.75Q63.67 5.88 63.06 7.85Q62.45 9.82 62.45 12.82Q62.45 14.25 62.80 14.86Q63.15 15.47 64.54 15.61Q65.92 15.75 69.05 15.75Q69.53 15.75 70.46 15.75Q71.40 15.75 72.46 15.75Q73.53 15.75 74.41 15.75Q75.30 15.75 75.67 15.75Q77.58 15.75 78.16 15.90Q78.75 16.05 78.75 16.42Q78.75 16.90 78.17 17.04Q77.60 17.17 76.38 17.17Q75.78 17.17 74.89 17.17Q74 17.17 72.99 17.19Q71.97 17.20 71.01 17.20Q70.05 17.20 69.33 17.20Q66.13 17.20 64.66 17.32Q63.20 17.45 62.81 18.05Q62.42 18.65 62.42 20.05Q62.42 22.57 62.59 24.56Q62.75 26.55 63.20 28.01Q63.65 29.48 64.51 30.44Q65.38 31.40 66.75 31.86Q68.13 32.33 70.13 32.33Q72.75 32.33 75.20 32.13Q77.65 31.93 79.56 31.71Q81.47 31.50 82.45 31.50Q83 31.50 83.21 31.61Q83.42 31.73 83.42 32Q83.42 32.40 82.20 32.77Q80.97 33.15 78.99 33.44Q77 33.73 74.65 33.90Q72.30 34.08 70.05 34.08ZM99.40 33.20Q98.90 33.20 98.70 32.46Q98.50 31.73 98.50 29.82Q98.50 28.90 98.55 27.11Q98.60 25.32 98.67 23.04Q98.75 20.75 98.85 18.25Q98.95 15.75 99.03 13.40Q99.10 11.05 99.15 9.15Q99.20 7.25 99.20 6.15Q99.20 5 98.72 4.74Q98.25 4.47 96.70 4.47Q94.92 4.47 93.14 4.75Q91.35 5.02 89.67 5.02Q89.28 5.02 88.95 4.99Q88.63 4.95 88.45 4.81Q88.28 4.67 88.28 4.42Q88.28 4.07 88.94 3.79Q89.60 3.50 90.89 3.26Q92.17 3.02 94.10 2.86Q96.03 2.70 98.55 2.61Q101.08 2.52 104.17 2.52Q105.55 2.52 106.84 2.59Q108.13 2.65 109.22 2.76Q110.33 2.88 111.14 3.04Q111.95 3.20 112.41 3.40Q112.88 3.60 112.88 3.82Q112.88 4.07 112.64 4.17Q112.40 4.27 111.99 4.30Q111.58 4.32 111.03 4.32Q109.80 4.32 108.64 4.20Q107.47 4.07 105.95 4.07Q103.58 4.07 102.53 4.30Q101.47 4.52 101.22 5.31Q100.97 6.10 100.97 7.82Q100.97 9.02 100.94 10.49Q100.90 11.95 100.85 13.60Q100.80 15.25 100.72 16.99Q100.65 18.73 100.58 20.45Q100.50 22.17 100.45 23.81Q100.40 25.45 100.36 26.90Q100.33 28.35 100.33 29.52Q100.33 30.98 100.25 31.77Q100.17 32.58 99.97 32.89Q99.78 33.20 99.40 33.20ZM118.03 32.42Q117.65 32.42 117.51 31.82Q117.38 31.23 117.38 30.45Q117.38 29.98 117.38 28.49Q117.38 27 117.39 24.81Q117.40 22.63 117.41 20.07Q117.42 17.52 117.45 14.93Q117.47 12.32 117.53 10Q117.58 7.67 117.63 5.97Q117.70 4.02 117.85 3.41Q118 2.80 118.47 2.80Q118.92 2.80 119.03 3.52Q119.13 4.25 119.13 5.70Q119.13 6.95 119.13 8.97Q119.13 11 119.11 13.45Q119.10 15.90 119.09 18.42Q119.08 20.95 119.05 23.25Q119.03 25.55 119 27.30Q118.97 29.05 118.95 29.88Q118.92 30.95 118.80 31.50Q118.67 32.05 118.49 32.24Q118.30 32.42 118.03 32.42ZM126.90 33.45Q126.47 33.45 126.22 32.84Q125.97 32.23 125.85 31.10Q125.77 30.48 125.66 28.74Q125.55 27 125.42 24.61Q125.30 22.23 125.16 19.61Q125.02 17 124.91 14.56Q124.80 12.13 124.74 10.30Q124.67 8.47 124.67 7.72Q124.67 6.13 124.84 5.07Q125 4.02 125.46 3.50Q125.92 2.97 126.85 2.97Q127.72 2.97 128.99 4.41Q130.25 5.85 132.28 8.96Q134.30 12.07 137.45 17.13Q142 24.40 144.45 27.57Q146.90 30.75 147.75 30.75Q148.22 30.75 148.54 30.43Q148.85 30.10 149 29.10Q149.15 28.10 149.15 26.07Q149.15 25.20 149.09 23.42Q149.03 21.65 148.94 19.39Q148.85 17.13 148.74 14.77Q148.63 12.42 148.54 10.35Q148.45 8.27 148.39 6.86Q148.32 5.45 148.32 5.13Q148.32 3.88 148.50 3.47Q148.68 3.07 149.07 3.07Q149.25 3.07 149.40 3.16Q149.55 3.25 149.66 3.47Q149.78 3.70 149.86 4.14Q149.95 4.57 150 5.25Q150.05 5.82 150.13 7.41Q150.20 9 150.31 11.19Q150.43 13.38 150.53 15.77Q150.63 18.17 150.72 20.42Q150.82 22.67 150.88 24.41Q150.93 26.15 150.93 26.98Q150.93 28.82 150.64 30.11Q150.35 31.40 149.68 32.05Q149 32.70 147.80 32.70Q146.55 32.70 144.85 30.85Q143.15 29 140.99 25.75Q138.82 22.50 136.18 18.35Q134.53 15.75 133 13.39Q131.47 11.02 130.24 9.19Q129 7.35 128.16 6.29Q127.33 5.22 127.05 5.22Q126.63 5.22 126.50 5.80Q126.38 6.38 126.38 8.13Q126.38 9.70 126.47 11.67Q126.58 13.65 126.72 15.80Q126.88 17.95 127.06 20.14Q127.25 22.32 127.40 24.36Q127.55 26.40 127.65 28.13Q127.75 29.85 127.75 31.10Q127.75 32.60 127.58 33.02Q127.40 33.45 126.90 33.45ZM169.30 34.08Q165.57 34.08 162.80 32.95Q160.03 31.82 158.18 29.68Q156.32 27.52 155.41 24.41Q154.50 21.30 154.50 17.32Q154.50 13.95 155.36 11.36Q156.22 8.77 157.74 6.91Q159.25 5.05 161.24 3.86Q163.22 2.67 165.47 2.11Q167.72 1.55 170.05 1.55Q171.97 1.55 173.75 1.89Q175.53 2.22 176.93 2.75Q178.32 3.27 179.14 3.84Q179.95 4.40 179.95 4.88Q179.95 5.10 179.76 5.32Q179.57 5.55 179.30 5.55Q179 5.55 178.38 5.19Q177.75 4.82 176.65 4.36Q175.55 3.90 173.79 3.54Q172.03 3.17 169.43 3.17Q166.78 3.17 164.41 4.11Q162.05 5.05 160.22 6.86Q158.40 8.67 157.36 11.34Q156.32 14 156.32 17.45Q156.32 22.77 157.89 26.04Q159.45 29.30 162.38 30.77Q165.30 32.25 169.32 32.25Q171.95 32.25 174.20 31.71Q176.45 31.18 178.14 30.07Q179.82 28.98 180.76 27.31Q181.70 25.65 181.70 23.42Q181.70 21.65 180.72 20.30Q179.75 18.95 177.88 18.19Q176 17.42 173.30 17.42Q170.82 17.42 169.54 17.32Q168.25 17.23 168.25 16.63Q168.25 16.18 168.70 15.99Q169.15 15.80 170.20 15.75Q171.25 15.70 173.05 15.70Q175.45 15.70 177.36 16.16Q179.28 16.63 180.61 17.56Q181.95 18.50 182.66 19.92Q183.38 21.35 183.38 23.25Q183.38 26.02 182.35 28.07Q181.32 30.13 179.45 31.45Q177.57 32.77 175 33.42Q172.43 34.08 169.30 34.08Z"/></g></g></g></svg>