<svg xmlns="http://www.w3.org/2000/svg" viewBox="0 1.5499999523162842 161.75 33.25" data-asc="0.645" width="161.75" height="33.25"><defs/><g><g fill="#000000"><g transform="translate(0, 0)"><path d="M15.88 34.80Q12.28 34.80 9.35 33.58Q6.43 32.35 4.34 30.09Q2.25 27.82 1.13 24.70Q0 21.57 0 17.80Q0 14.35 1.13 11.77Q2.25 9.20 4.13 7.41Q6 5.63 8.29 4.52Q10.58 3.42 12.95 2.92Q15.32 2.42 17.43 2.42Q21.23 2.42 24.34 3.61Q27.45 4.80 29.70 6.97Q31.95 9.15 33.16 12.13Q34.38 15.10 34.38 18.70Q34.38 22.67 33.09 25.69Q31.80 28.70 29.36 30.73Q26.93 32.75 23.53 33.77Q20.13 34.80 15.88 34.80M16.05 33.08Q22.10 33.08 25.71 31.16Q29.33 29.25 30.94 26.01Q32.55 22.77 32.55 18.82Q32.55 15.18 31.39 12.39Q30.23 9.60 28.15 7.72Q26.08 5.85 23.35 4.90Q20.63 3.95 17.50 3.95Q14.40 3.95 11.61 4.88Q8.83 5.80 6.66 7.54Q4.50 9.27 3.25 11.75Q2 14.22 2 17.30Q2 21.07 3.05 24.01Q4.10 26.95 5.99 28.96Q7.88 30.98 10.45 32.02Q13.03 33.08 16.05 33.08ZM49.67 33.08Q45.08 33.08 42.61 30.51Q40.15 27.95 39.05 23.77Q38.77 22.73 38.58 21.57Q38.38 20.42 38.24 19.21Q38.10 18 38.02 16.73Q37.95 15.45 37.91 14.13Q37.88 12.80 37.88 11.42Q37.88 7.85 37.99 5.91Q38.10 3.97 38.35 3.24Q38.60 2.50 38.95 2.50Q39.25 2.50 39.39 3.30Q39.52 4.10 39.56 6.26Q39.60 8.42 39.60 12.52Q39.60 13.75 39.64 14.95Q39.67 16.15 39.75 17.29Q39.83 18.42 39.95 19.51Q40.08 20.60 40.25 21.61Q40.42 22.63 40.67 23.55Q41.63 27.18 43.76 29.38Q45.90 31.57 49.75 31.57Q52.10 31.57 53.85 30.56Q55.60 29.55 56.83 27.75Q58.05 25.95 58.80 23.57Q59.17 22.38 59.45 21.04Q59.73 19.70 59.90 18.27Q60.08 16.85 60.16 15.36Q60.25 13.88 60.25 12.35Q60.25 8.63 60.29 6.60Q60.33 4.57 60.53 3.79Q60.73 3 61.17 3Q61.50 3 61.65 3.85Q61.80 4.70 61.85 6.72Q61.90 8.75 61.90 12.25Q61.90 13.52 61.84 14.77Q61.78 16.02 61.66 17.23Q61.55 18.42 61.36 19.57Q61.17 20.73 60.94 21.81Q60.70 22.90 60.38 23.92Q59.55 26.63 58.13 28.69Q56.70 30.75 54.61 31.91Q52.53 33.08 49.67 33.08ZM77.78 33.20Q77.28 33.20 77.08 32.46Q76.88 31.73 76.88 29.82Q76.88 28.90 76.92 27.11Q76.97 25.32 77.05 23.04Q77.13 20.75 77.22 18.25Q77.33 15.75 77.40 13.40Q77.47 11.05 77.53 9.15Q77.58 7.25 77.58 6.15Q77.58 5 77.10 4.74Q76.63 4.47 75.08 4.47Q73.30 4.47 71.51 4.75Q69.72 5.02 68.05 5.02Q67.65 5.02 67.33 4.99Q67 4.95 66.83 4.81Q66.65 4.67 66.65 4.42Q66.65 4.07 67.31 3.79Q67.97 3.50 69.26 3.26Q70.55 3.02 72.47 2.86Q74.40 2.70 76.92 2.61Q79.45 2.52 82.55 2.52Q83.92 2.52 85.21 2.59Q86.50 2.65 87.60 2.76Q88.70 2.88 89.51 3.04Q90.33 3.20 90.79 3.40Q91.25 3.60 91.25 3.82Q91.25 4.07 91.01 4.17Q90.78 4.27 90.36 4.30Q89.95 4.32 89.40 4.32Q88.17 4.32 87.01 4.20Q85.85 4.07 84.33 4.07Q81.95 4.07 80.90 4.30Q79.85 4.52 79.60 5.31Q79.35 6.10 79.35 7.82Q79.35 9.02 79.31 10.49Q79.28 11.95 79.22 13.60Q79.17 15.25 79.10 16.99Q79.03 18.73 78.95 20.45Q78.88 22.17 78.83 23.81Q78.78 25.45 78.74 26.90Q78.70 28.35 78.70 29.52Q78.70 30.98 78.63 31.77Q78.55 32.58 78.35 32.89Q78.15 33.20 77.78 33.20ZM96.40 32.42Q96.03 32.42 95.89 31.82Q95.75 31.23 95.75 30.45Q95.75 29.98 95.75 28.49Q95.75 27 95.76 24.81Q95.78 22.63 95.79 20.07Q95.80 17.52 95.83 14.93Q95.85 12.32 95.90 10Q95.95 7.67 96 5.97Q96.08 4.02 96.22 3.41Q96.38 2.80 96.85 2.80Q97.30 2.80 97.40 3.52Q97.50 4.25 97.50 5.70Q97.50 6.95 97.50 8.97Q97.50 11 97.49 13.45Q97.47 15.90 97.46 18.42Q97.45 20.95 97.42 23.25Q97.40 25.55 97.38 27.30Q97.35 29.05 97.33 29.88Q97.30 30.95 97.17 31.50Q97.05 32.05 96.86 32.24Q96.67 32.42 96.40 32.42ZM105.27 33.45Q104.85 33.45 104.60 32.84Q104.35 32.23 104.22 31.10Q104.15 30.48 104.04 28.74Q103.92 27 103.80 24.61Q103.67 22.23 103.54 19.61Q103.40 17 103.29 14.56Q103.17 12.13 103.11 10.30Q103.05 8.47 103.05 7.72Q103.05 6.13 103.21 5.07Q103.38 4.02 103.84 3.50Q104.30 2.97 105.22 2.97Q106.10 2.97 107.36 4.41Q108.63 5.85 110.65 8.96Q112.67 12.07 115.83 17.13Q120.38 24.40 122.83 27.57Q125.28 30.75 126.13 30.75Q126.60 30.75 126.91 30.43Q127.22 30.10 127.38 29.10Q127.53 28.10 127.53 26.07Q127.53 25.20 127.46 23.42Q127.40 21.65 127.31 19.39Q127.22 17.13 127.11 14.77Q127 12.42 126.91 10.35Q126.83 8.27 126.76 6.86Q126.70 5.45 126.70 5.13Q126.70 3.88 126.88 3.47Q127.05 3.07 127.45 3.07Q127.63 3.07 127.78 3.16Q127.92 3.25 128.04 3.47Q128.15 3.70 128.24 4.14Q128.32 4.57 128.38 5.25Q128.43 5.82 128.50 7.41Q128.57 9 128.69 11.19Q128.80 13.38 128.90 15.77Q129 18.17 129.10 20.42Q129.20 22.67 129.25 24.41Q129.30 26.15 129.30 26.98Q129.30 28.82 129.01 30.11Q128.72 31.40 128.05 32.05Q127.38 32.70 126.17 32.70Q124.92 32.70 123.22 30.85Q121.53 29 119.36 25.75Q117.20 22.50 114.55 18.35Q112.90 15.75 111.38 13.39Q109.85 11.02 108.61 9.19Q107.38 7.35 106.54 6.29Q105.70 5.22 105.42 5.22Q105 5.22 104.88 5.80Q104.75 6.38 104.75 8.13Q104.75 9.70 104.85 11.67Q104.95 13.65 105.10 15.80Q105.25 17.95 105.44 20.14Q105.63 22.32 105.77 24.36Q105.92 26.40 106.02 28.13Q106.13 29.85 106.13 31.10Q106.13 32.60 105.95 33.02Q105.77 33.45 105.27 33.45ZM147.68 34.08Q143.95 34.08 141.18 32.95Q138.40 31.82 136.55 29.68Q134.70 27.52 133.79 24.41Q132.88 21.30 132.88 17.32Q132.88 13.95 133.74 11.36Q134.60 8.77 136.11 6.91Q137.63 5.05 139.61 3.86Q141.60 2.67 143.85 2.11Q146.10 1.55 148.43 1.55Q150.35 1.55 152.13 1.89Q153.90 2.22 155.30 2.75Q156.70 3.27 157.51 3.84Q158.32 4.40 158.32 4.88Q158.32 5.10 158.14 5.32Q157.95 5.55 157.68 5.55Q157.38 5.55 156.75 5.19Q156.13 4.82 155.03 4.36Q153.93 3.90 152.16 3.54Q150.40 3.17 147.80 3.17Q145.15 3.17 142.79 4.11Q140.43 5.05 138.60 6.86Q136.78 8.67 135.74 11.34Q134.70 14 134.70 17.45Q134.70 22.77 136.26 26.04Q137.82 29.30 140.75 30.77Q143.68 32.25 147.70 32.25Q150.32 32.25 152.57 31.71Q154.82 31.18 156.51 30.07Q158.20 28.98 159.14 27.31Q160.07 25.65 160.07 23.42Q160.07 21.65 159.10 20.30Q158.13 18.95 156.25 18.19Q154.38 17.42 151.68 17.42Q149.20 17.42 147.91 17.32Q146.63 17.23 146.63 16.63Q146.63 16.18 147.07 15.99Q147.53 15.80 148.57 15.75Q149.63 15.70 151.43 15.70Q153.82 15.70 155.74 16.16Q157.65 16.63 158.99 17.56Q160.32 18.50 161.04 19.92Q161.75 21.35 161.75 23.25Q161.75 26.02 160.72 28.07Q159.70 30.13 157.82 31.45Q155.95 32.77 153.38 33.42Q150.80 34.08 147.68 34.08Z"/></g></g></g></svg>