<svg xmlns="http://www.w3.org/2000/svg" viewBox="0 0.8799999952316284 166.82000732421875 33.20000076293945" data-asc="0.645" width="166.82000732421875" height="33.20000076293945"><defs/><g><g fill="#000000"><g transform="translate(0, 0)"><path d="M10.48 33.45Q8.28 33.45 6.38 33.01Q4.47 32.58 3.04 31.94Q1.60 31.30 0.80 30.65Q0 30 0 29.57Q0 29.45 0.05 29.36Q0.10 29.27 0.21 29.23Q0.32 29.18 0.45 29.18Q1.05 29.18 2.33 29.80Q3.60 30.43 5.64 31.06Q7.68 31.70 10.53 31.70Q13.20 31.70 15.16 31.48Q17.13 31.25 18.41 30.66Q19.70 30.07 20.32 29.04Q20.95 28 20.95 26.38Q20.95 24.75 20.19 23.51Q19.43 22.27 18.06 21.26Q16.70 20.25 14.88 19.36Q13.05 18.48 10.95 17.57Q8.70 16.60 6.79 15.66Q4.88 14.72 3.45 13.66Q2.02 12.60 1.24 11.25Q0.45 9.90 0.45 8.07Q0.45 6.30 1.23 5.05Q2 3.80 3.30 2.99Q4.60 2.17 6.18 1.72Q7.75 1.27 9.36 1.10Q10.98 0.92 12.35 0.92Q14.68 0.92 16.59 1.32Q18.50 1.72 19.89 2.34Q21.27 2.95 22.02 3.59Q22.77 4.22 22.77 4.72Q22.77 4.82 22.73 4.94Q22.68 5.05 22.59 5.13Q22.50 5.20 22.35 5.20Q21.90 5.20 20.71 4.49Q19.52 3.77 17.52 3.07Q15.53 2.38 12.58 2.38Q10.75 2.38 8.96 2.64Q7.18 2.90 5.70 3.52Q4.22 4.15 3.34 5.24Q2.45 6.32 2.45 8Q2.45 9.50 3.14 10.63Q3.82 11.75 5.04 12.64Q6.25 13.52 7.89 14.30Q9.53 15.07 11.40 15.85Q13.88 16.88 15.97 17.94Q18.07 19 19.63 20.21Q21.18 21.42 22.04 22.89Q22.90 24.35 22.90 26.15Q22.90 28.30 22.02 29.73Q21.15 31.15 19.51 31.96Q17.88 32.77 15.59 33.11Q13.30 33.45 10.48 33.45ZM37.20 34.08Q33.75 34.08 31.80 32.85Q29.85 31.63 28.99 29.24Q28.13 26.85 27.85 23.38Q27.77 22.42 27.74 21.41Q27.70 20.40 27.67 19.31Q27.65 18.23 27.65 17.05Q27.65 15.88 27.65 14.63Q27.65 10.63 28.31 8.05Q28.97 5.47 30.51 4.04Q32.05 2.60 34.67 2.02Q37.30 1.45 41.20 1.45Q43.05 1.45 44.79 1.57Q46.52 1.70 47.89 1.92Q49.25 2.15 50.05 2.44Q50.85 2.72 50.85 3.07Q50.85 3.32 50.67 3.41Q50.50 3.50 50.15 3.50Q49.40 3.50 48.09 3.30Q46.77 3.10 45.05 2.90Q43.33 2.70 41.33 2.70Q38.05 2.70 35.80 3.16Q33.55 3.63 32.19 4.75Q30.82 5.88 30.21 7.85Q29.60 9.82 29.60 12.82Q29.60 14.25 29.95 14.86Q30.30 15.47 31.69 15.61Q33.08 15.75 36.20 15.75Q36.67 15.75 37.61 15.75Q38.55 15.75 39.61 15.75Q40.67 15.75 41.56 15.75Q42.45 15.75 42.83 15.75Q44.73 15.75 45.31 15.90Q45.90 16.05 45.90 16.42Q45.90 16.90 45.33 17.04Q44.75 17.17 43.52 17.17Q42.92 17.17 42.04 17.17Q41.15 17.17 40.14 17.19Q39.13 17.20 38.16 17.20Q37.20 17.20 36.48 17.20Q33.27 17.20 31.81 17.32Q30.35 17.45 29.96 18.05Q29.57 18.65 29.57 20.05Q29.57 22.57 29.74 24.56Q29.90 26.55 30.35 28.01Q30.80 29.48 31.66 30.44Q32.52 31.40 33.90 31.86Q35.27 32.33 37.27 32.33Q39.90 32.33 42.35 32.13Q44.80 31.93 46.71 31.71Q48.63 31.50 49.60 31.50Q50.15 31.50 50.36 31.61Q50.58 31.73 50.58 32Q50.58 32.40 49.35 32.77Q48.13 33.15 46.14 33.44Q44.15 33.73 41.80 33.90Q39.45 34.08 37.20 34.08ZM56.07 33.30Q55.63 33.30 55.41 32.60Q55.20 31.90 55.13 30.32Q55.10 29.63 55.05 28.41Q55 27.20 54.94 25.71Q54.88 24.23 54.82 22.66Q54.77 21.10 54.75 19.65Q54.73 18.20 54.73 17.13Q54.73 14 54.85 11.44Q54.98 8.88 55.41 6.90Q55.85 4.92 56.77 3.59Q57.70 2.25 59.30 1.56Q60.90 0.88 63.38 0.88Q65.92 0.88 68.10 1.36Q70.28 1.85 71.90 2.86Q73.53 3.88 74.42 5.42Q75.33 6.97 75.33 9.07Q75.33 11.35 74.09 12.92Q72.85 14.50 70.90 15.49Q68.95 16.48 66.76 17Q64.58 17.52 62.67 17.73Q61.65 17.82 61.36 17.91Q61.08 18 61.08 18.20Q61.08 18.35 61.15 18.51Q61.23 18.67 61.48 18.95Q61.73 19.23 62.24 19.71Q62.75 20.20 63.60 21Q64.63 21.98 66.04 23.34Q67.45 24.70 68.94 26.16Q70.42 27.63 71.70 28.94Q72.97 30.25 73.78 31.14Q74.58 32.02 74.58 32.20Q74.58 32.38 74.53 32.49Q74.47 32.60 74.39 32.65Q74.30 32.70 74.13 32.70Q73.70 32.70 72.88 32.13Q72.05 31.55 70.94 30.56Q69.83 29.57 68.54 28.32Q67.25 27.07 65.88 25.73Q63.60 23.48 61.85 21.86Q60.10 20.25 58.99 19.38Q57.88 18.50 57.48 18.50Q57.15 18.50 56.96 18.79Q56.77 19.07 56.70 19.81Q56.63 20.55 56.61 21.86Q56.60 23.17 56.60 25.25Q56.60 25.73 56.63 26.49Q56.65 27.25 56.67 28.11Q56.70 28.98 56.73 29.76Q56.75 30.55 56.77 31.10Q56.80 31.65 56.80 31.77Q56.80 32.52 56.65 32.91Q56.50 33.30 56.07 33.30M59.90 16.63Q61.02 16.63 62.77 16.42Q64.53 16.22 66.45 15.72Q68.38 15.22 70.09 14.36Q71.80 13.50 72.88 12.19Q73.95 10.88 73.95 9.05Q73.95 7.15 73.01 5.85Q72.08 4.55 70.51 3.77Q68.95 3 67.08 2.65Q65.20 2.30 63.33 2.30Q61.42 2.30 60.13 2.82Q58.83 3.35 58.05 4.47Q57.27 5.60 56.92 7.45Q56.75 8.42 56.66 9.39Q56.57 10.35 56.54 11.22Q56.50 12.10 56.50 12.82Q56.50 14.32 56.65 15.15Q56.80 15.97 57.51 16.30Q58.23 16.63 59.90 16.63ZM88.95 32.92Q88.10 32.92 87.33 31.91Q86.55 30.90 85.86 29.40Q85.18 27.90 84.63 26.40Q84.23 25.32 83.58 23.34Q82.93 21.35 82.16 18.90Q81.40 16.45 80.63 13.91Q79.85 11.38 79.21 9.16Q78.58 6.95 78.19 5.42Q77.80 3.90 77.80 3.50Q77.80 3.02 78.01 2.80Q78.23 2.57 78.63 2.57Q79 2.57 79.28 2.89Q79.55 3.20 79.75 3.92Q80.38 6.20 81.21 9.21Q82.05 12.22 82.99 15.40Q83.93 18.57 84.83 21.42Q85.73 24.27 86.48 26.23Q87.35 28.50 87.98 29.84Q88.60 31.18 88.98 31.18Q89.40 31.18 90.38 29.88Q91.35 28.57 92.63 26.52Q93.85 24.55 95.23 21.94Q96.60 19.32 98.01 16.38Q99.43 13.43 100.74 10.41Q102.05 7.40 103.15 4.63Q103.35 4.15 103.51 3.85Q103.68 3.55 103.86 3.39Q104.05 3.22 104.28 3.22Q104.55 3.22 104.74 3.36Q104.93 3.50 105.04 3.74Q105.15 3.97 105.15 4.30Q105.15 4.88 104.59 6.40Q104.03 7.92 103.09 10.06Q102.15 12.20 100.99 14.60Q99.83 17 98.61 19.36Q97.40 21.73 96.29 23.71Q95.18 25.70 94.35 26.98Q93.50 28.27 92.51 29.65Q91.53 31.02 90.60 31.98Q89.68 32.92 88.95 32.92ZM109.38 32.42Q109.00 32.42 108.86 31.82Q108.73 31.23 108.73 30.45Q108.73 29.98 108.73 28.49Q108.73 27 108.74 24.81Q108.75 22.63 108.76 20.07Q108.78 17.52 108.80 14.93Q108.83 12.32 108.88 10Q108.93 7.67 108.98 5.97Q109.05 4.02 109.20 3.41Q109.35 2.80 109.83 2.80Q110.28 2.80 110.38 3.52Q110.48 4.25 110.48 5.70Q110.48 6.95 110.48 8.97Q110.48 11 110.46 13.45Q110.45 15.90 110.44 18.42Q110.43 20.95 110.40 23.25Q110.38 25.55 110.35 27.30Q110.33 29.05 110.30 29.88Q110.28 30.95 110.15 31.50Q110.03 32.05 109.84 32.24Q109.65 32.42 109.38 32.42ZM128.85 33.70Q125.43 33.70 122.76 32.64Q120.10 31.57 118.28 29.61Q116.45 27.65 115.50 24.93Q114.55 22.20 114.55 18.88Q114.55 15.38 115.53 12.41Q116.50 9.45 118.43 7.25Q120.35 5.05 123.20 3.84Q126.05 2.63 129.80 2.63Q131.95 2.63 133.66 3.07Q135.38 3.52 136.56 4.19Q137.75 4.85 138.38 5.51Q139 6.17 139 6.63Q139 6.95 138.75 7.04Q138.50 7.13 138.30 7.13Q137.85 7.13 137.40 6.67Q136.95 6.22 136.08 5.65Q135.20 5.07 133.54 4.63Q131.88 4.17 129.05 4.17Q126.80 4.17 124.56 5.07Q122.33 5.97 120.49 7.77Q118.65 9.57 117.54 12.27Q116.43 14.97 116.43 18.55Q116.43 21.23 117.19 23.69Q117.95 26.15 119.49 28.07Q121.03 30 123.31 31.13Q125.60 32.25 128.68 32.25Q131.20 32.25 132.84 31.59Q134.48 30.93 135.53 30.06Q136.58 29.20 137.25 28.54Q137.93 27.88 138.48 27.88Q138.83 27.88 138.96 28.04Q139.10 28.20 139.10 28.63Q139.10 29.10 138.44 29.95Q137.78 30.80 136.46 31.65Q135.15 32.50 133.24 33.10Q131.33 33.70 128.85 33.70ZM153.18 34.08Q149.72 34.08 147.78 32.85Q145.82 31.63 144.96 29.24Q144.10 26.85 143.82 23.38Q143.75 22.42 143.71 21.41Q143.68 20.40 143.65 19.31Q143.63 18.23 143.63 17.05Q143.63 15.88 143.63 14.63Q143.63 10.63 144.29 8.05Q144.95 5.47 146.49 4.04Q148.03 2.60 150.65 2.02Q153.28 1.45 157.18 1.45Q159.03 1.45 160.76 1.57Q162.50 1.70 163.86 1.92Q165.22 2.15 166.03 2.44Q166.82 2.72 166.82 3.07Q166.82 3.32 166.65 3.41Q166.47 3.50 166.13 3.50Q165.38 3.50 164.06 3.30Q162.75 3.10 161.03 2.90Q159.30 2.70 157.30 2.70Q154.03 2.70 151.78 3.16Q149.53 3.63 148.16 4.75Q146.80 5.88 146.19 7.85Q145.57 9.82 145.57 12.82Q145.57 14.25 145.93 14.86Q146.28 15.47 147.66 15.61Q149.05 15.75 152.18 15.75Q152.65 15.75 153.59 15.75Q154.53 15.75 155.59 15.75Q156.65 15.75 157.54 15.75Q158.43 15.75 158.80 15.75Q160.70 15.75 161.29 15.90Q161.88 16.05 161.88 16.42Q161.88 16.90 161.30 17.04Q160.72 17.17 159.50 17.17Q158.90 17.17 158.01 17.17Q157.13 17.17 156.11 17.19Q155.10 17.20 154.14 17.20Q153.18 17.20 152.45 17.20Q149.25 17.20 147.79 17.32Q146.32 17.45 145.94 18.05Q145.55 18.65 145.55 20.05Q145.55 22.57 145.71 24.56Q145.88 26.55 146.32 28.01Q146.78 29.48 147.64 30.44Q148.50 31.40 149.88 31.86Q151.25 32.33 153.25 32.33Q155.88 32.33 158.32 32.13Q160.78 31.93 162.69 31.71Q164.60 31.50 165.57 31.50Q166.13 31.50 166.34 31.61Q166.55 31.73 166.55 32Q166.55 32.40 165.32 32.77Q164.10 33.15 162.11 33.44Q160.13 33.73 157.78 33.90Q155.43 34.08 153.18 34.08Z"/></g></g></g></svg>